<svg xmlns="http://www.w3.org/2000/svg" viewBox="0 0 1554.19 4410.84" xmlns:xlink="http://www.w3.org/1999/xlink">
  <g fill="#93b8c9">
   <path class="fil0" d="M703.92 2756.35c-75.83,0 -137.3,-61.48 -137.3,-137.3 0,-75.83 61.48,-137.3 137.3,-137.3l534.51 0c13.71,-45.78 23.94,-92.24 30.7,-139.02l-724.31 0c-75.83,0 -137.3,-61.48 -137.3,-137.3 0,-75.83 61.48,-137.3 137.3,-137.3l724.28 0c-6.76,-46.78 -16.98,-93.24 -30.68,-139.02l-534.49 0c-75.83,0 -137.3,-61.48 -137.3,-137.3 0,-75.83 61.48,-137.3 137.3,-137.3l403.51 0c-60.09,-88.75 -135.99,-171.91 -227.72,-246.51 76.88,-54.29 154.84,-106.47 229.56,-163.96 112.05,100.72 203.01,213.15 272.81,332.9 228.55,392.06 228.56,864.93 0,1256.99 -270.46,463.95 -677.01,507.82 -935.51,888.71l391.68 0c75.83,0 137.3,61.48 137.3,137.3 0,75.83 -61.48,137.3 -137.3,137.3l-522.89 0c-13.76,45.8 -24.04,92.25 -30.83,139.02l720.87 0c75.83,0 137.3,61.48 137.3,137.3 0,75.83 -61.48,137.3 -137.3,137.3l-847 0c-85.28,0 -158.41,-43.08 -158.41,-137.3 0,-226.57 63.4,-453.33 190.19,-658.25 268.1,-433.33 666.61,-490.74 917.14,-858.94l-403.41 0z"/>
   <path class="fil0" d="M1279.58 137.3c0,-75.83 61.48,-137.3 137.3,-137.3 75.83,0 137.3,61.48 137.3,137.3 0,226.57 -63.4,453.33 -190.19,658.25 -281.98,455.75 -708.22,495.63 -954.83,918.67 -178.68,306.52 -178.69,675.86 -0,982.38 64.85,111.24 153.28,215.13 265.32,306.24 -76.88,54.29 -154.84,106.47 -229.56,163.96 -112.05,-100.73 -203.01,-213.16 -272.82,-332.9 -228.55,-392.06 -228.55,-864.93 0,-1256.99 278.85,-478.33 702.36,-510.11 959.12,-925.11 98.9,-159.85 148.36,-337.1 148.36,-514.52z"/>
   <path class="fil0" d="M1109.17 3312.14c102.63,92.31 187.6,194.49 254.83,303.15 126.79,204.93 190.19,431.68 190.19,658.25 0,75.83 -61.48,137.3 -137.3,137.3 -75.83,0 -137.3,-61.48 -137.3,-137.3 0,-177.42 -49.46,-354.67 -148.36,-514.52 -63.47,-102.59 -147.46,-198.49 -251.99,-283.36 77.14,-54.24 155.1,-106.21 229.93,-163.52z"/>
   <path class="fil0" d="M-0 137.3c0,-94.22 73.13,-137.3 158.41,-137.3l847 0c75.83,0 137.3,61.48 137.3,137.3 0,75.83 -61.48,137.3 -137.3,137.3l-720.87 0c6.79,46.77 17.07,93.22 30.83,139.02l522.89 0c75.83,0 137.3,61.48 137.3,137.3 0,75.83 -61.48,137.3 -137.3,137.3l-391.71 0c60.21,88.9 136.33,172.2 228.4,246.95 -77.14,54.23 -155.1,106.21 -229.93,163.53 -102.63,-92.31 -187.6,-194.49 -254.82,-303.15 -126.79,-204.93 -190.19,-431.68 -190.19,-658.25z"/>
  </g>
</svg>
